<svg xmlns="http://www.w3.org/2000/svg" xmlns:xlink="http://www.w3.org/1999/xlink" width="100%" zoomAndPan="magnify" viewBox="0 0 1024.5 576" height="100%" preserveAspectRatio="xMidYMid meet" version="1.0"><defs><g></g></defs><g fill="#000000" fill-opacity="1"><g transform="translate(289.369456, 304.821826)"><g><path d="M 12.046875 0 L 12.046875 -99.484375 L 45.65625 -99.484375 C 53.457031 -99.484375 59.84375 -98.082031 64.8125 -95.28125 C 69.789062 -92.476562 73.476562 -88.695312 75.875 -83.9375 C 78.269531 -79.175781 79.46875 -73.863281 79.46875 -68 C 79.46875 -62.132812 78.273438 -56.804688 75.890625 -52.015625 C 73.515625 -47.222656 69.847656 -43.410156 64.890625 -40.578125 C 59.941406 -37.742188 53.597656 -36.328125 45.859375 -36.328125 L 24.09375 -36.328125 L 24.09375 0 Z M 24.09375 -47.015625 L 45.46875 -47.015625 C 53.46875 -47.015625 59.15625 -49.019531 62.53125 -53.03125 C 65.914062 -57.050781 67.609375 -62.039062 67.609375 -68 C 67.609375 -73.988281 65.90625 -78.953125 62.5 -82.890625 C 59.101562 -86.828125 53.359375 -88.796875 45.265625 -88.796875 L 24.09375 -88.796875 Z M 24.09375 -47.015625 " class="svg-elem-1"></path></g></g></g><g fill="#000000" fill-opacity="1"><g transform="translate(363.361922, 304.821826)"><g><path d="M 40.796875 1.546875 C 34.066406 1.546875 28.164062 -0.0507812 23.09375 -3.25 C 18.03125 -6.457031 14.082031 -10.941406 11.25 -16.703125 C 8.414062 -22.472656 7 -29.210938 7 -36.921875 C 7 -44.691406 8.414062 -51.472656 11.25 -57.265625 C 14.082031 -63.066406 18.03125 -67.566406 23.09375 -70.765625 C 28.164062 -73.972656 34.066406 -75.578125 40.796875 -75.578125 C 47.535156 -75.578125 53.4375 -73.972656 58.5 -70.765625 C 63.570312 -67.566406 67.523438 -63.066406 70.359375 -57.265625 C 73.191406 -51.472656 74.609375 -44.691406 74.609375 -36.921875 C 74.609375 -29.210938 73.191406 -22.472656 70.359375 -16.703125 C 67.523438 -10.941406 63.570312 -6.457031 58.5 -3.25 C 53.4375 -0.0507812 47.535156 1.546875 40.796875 1.546875 Z M 40.796875 -8.75 C 45.910156 -8.75 50.117188 -10.054688 53.421875 -12.671875 C 56.734375 -15.296875 59.179688 -18.742188 60.765625 -23.015625 C 62.347656 -27.296875 63.140625 -31.929688 63.140625 -36.921875 C 63.140625 -41.898438 62.347656 -46.539062 60.765625 -50.84375 C 59.179688 -55.15625 56.734375 -58.640625 53.421875 -61.296875 C 50.117188 -63.953125 45.910156 -65.28125 40.796875 -65.28125 C 35.679688 -65.28125 31.472656 -63.953125 28.171875 -61.296875 C 24.867188 -58.640625 22.421875 -55.15625 20.828125 -50.84375 C 19.242188 -46.539062 18.453125 -41.898438 18.453125 -36.921875 C 18.453125 -31.929688 19.242188 -27.296875 20.828125 -23.015625 C 22.421875 -18.742188 24.867188 -15.296875 28.171875 -12.671875 C 31.472656 -10.054688 35.679688 -8.75 40.796875 -8.75 Z M 40.796875 -8.75 " class="svg-elem-2"></path></g></g></g><g fill="#000000" fill-opacity="1"><g transform="translate(432.108377, 304.821826)"><g><path d="M 10.484375 0 L 10.484375 -74.609375 L 21.5625 -74.609375 L 21.5625 -63.34375 L 22.34375 -63.34375 C 23.664062 -67.03125 26.109375 -70.023438 29.671875 -72.328125 C 33.234375 -74.628906 37.265625 -75.78125 41.765625 -75.78125 C 43.835938 -75.78125 45.648438 -75.535156 47.203125 -75.046875 C 48.765625 -74.554688 50.128906 -73.890625 51.296875 -73.046875 L 47.40625 -63.34375 C 46.59375 -63.757812 45.644531 -64.085938 44.5625 -64.328125 C 43.476562 -64.578125 42.222656 -64.703125 40.796875 -64.703125 C 35.359375 -64.703125 30.859375 -63.039062 27.296875 -59.71875 C 23.734375 -56.394531 21.953125 -52.226562 21.953125 -47.21875 L 21.953125 0 Z M 10.484375 0 " class="svg-elem-3"></path></g></g></g><g fill="#000000" fill-opacity="1"><g transform="translate(471.710336, 304.821826)"><g><path d="M 42.9375 -74.609375 L 42.9375 -64.890625 L 27 -64.890625 L 27 -21.375 C 27 -18.132812 27.476562 -15.710938 28.4375 -14.109375 C 29.394531 -12.503906 30.625 -11.4375 32.125 -10.90625 C 33.632812 -10.375 35.234375 -10.109375 36.921875 -10.109375 C 38.179688 -10.109375 39.210938 -10.179688 40.015625 -10.328125 C 40.828125 -10.472656 41.476562 -10.59375 41.96875 -10.6875 L 44.296875 -0.390625 C 43.515625 -0.0976562 42.425781 0.195312 41.03125 0.5 C 39.644531 0.8125 37.882812 0.96875 35.75 0.96875 C 32.507812 0.96875 29.34375 0.273438 26.25 -1.109375 C 23.15625 -2.503906 20.597656 -4.625 18.578125 -7.46875 C 16.554688 -10.320312 15.546875 -13.921875 15.546875 -18.265625 L 15.546875 -64.890625 L 4.28125 -64.890625 L 4.28125 -74.609375 L 15.546875 -74.609375 L 15.546875 -92.484375 L 27 -92.484375 L 27 -74.609375 Z M 42.9375 -74.609375 " class="svg-elem-4"></path></g></g></g><g fill="#000000" fill-opacity="1"><g transform="translate(508.592138, 304.821826)"><g><path d="M 43.71875 -74.609375 L 43.71875 -64.890625 L 27 -64.890625 L 27 0 L 15.546875 0 L 15.546875 -64.890625 L 3.5 -64.890625 L 3.5 -74.609375 L 15.546875 -74.609375 L 15.546875 -84.90625 C 15.546875 -89.175781 16.546875 -92.734375 18.546875 -95.578125 C 20.554688 -98.429688 23.164062 -100.570312 26.375 -102 C 29.582031 -103.425781 32.96875 -104.140625 36.53125 -104.140625 C 39.34375 -104.140625 41.640625 -103.910156 43.421875 -103.453125 C 45.203125 -103.003906 46.53125 -102.585938 47.40625 -102.203125 L 44.109375 -92.28125 C 43.523438 -92.476562 42.722656 -92.722656 41.703125 -93.015625 C 40.679688 -93.304688 39.34375 -93.453125 37.6875 -93.453125 C 33.90625 -93.453125 31.175781 -92.492188 29.5 -90.578125 C 27.832031 -88.671875 27 -85.875 27 -82.1875 L 27 -74.609375 Z M 43.71875 -74.609375 " class="svg-elem-5"></path></g></g></g><g fill="#000000" fill-opacity="1"><g transform="translate(545.085351, 304.821826)"><g><path d="M 40.796875 1.546875 C 34.066406 1.546875 28.164062 -0.0507812 23.09375 -3.25 C 18.03125 -6.457031 14.082031 -10.941406 11.25 -16.703125 C 8.414062 -22.472656 7 -29.210938 7 -36.921875 C 7 -44.691406 8.414062 -51.472656 11.25 -57.265625 C 14.082031 -63.066406 18.03125 -67.566406 23.09375 -70.765625 C 28.164062 -73.972656 34.066406 -75.578125 40.796875 -75.578125 C 47.535156 -75.578125 53.4375 -73.972656 58.5 -70.765625 C 63.570312 -67.566406 67.523438 -63.066406 70.359375 -57.265625 C 73.191406 -51.472656 74.609375 -44.691406 74.609375 -36.921875 C 74.609375 -29.210938 73.191406 -22.472656 70.359375 -16.703125 C 67.523438 -10.941406 63.570312 -6.457031 58.5 -3.25 C 53.4375 -0.0507812 47.535156 1.546875 40.796875 1.546875 Z M 40.796875 -8.75 C 45.910156 -8.75 50.117188 -10.054688 53.421875 -12.671875 C 56.734375 -15.296875 59.179688 -18.742188 60.765625 -23.015625 C 62.347656 -27.296875 63.140625 -31.929688 63.140625 -36.921875 C 63.140625 -41.898438 62.347656 -46.539062 60.765625 -50.84375 C 59.179688 -55.15625 56.734375 -58.640625 53.421875 -61.296875 C 50.117188 -63.953125 45.910156 -65.28125 40.796875 -65.28125 C 35.679688 -65.28125 31.472656 -63.953125 28.171875 -61.296875 C 24.867188 -58.640625 22.421875 -55.15625 20.828125 -50.84375 C 19.242188 -46.539062 18.453125 -41.898438 18.453125 -36.921875 C 18.453125 -31.929688 19.242188 -27.296875 20.828125 -23.015625 C 22.421875 -18.742188 24.867188 -15.296875 28.171875 -12.671875 C 31.472656 -10.054688 35.679688 -8.75 40.796875 -8.75 Z M 40.796875 -8.75 " class="svg-elem-6"></path></g></g></g><g fill="#000000" fill-opacity="1"><g transform="translate(613.831819, 304.821826)"><g><path d="M 21.953125 -99.484375 L 21.953125 0 L 10.484375 0 L 10.484375 -99.484375 Z M 21.953125 -99.484375 " class="svg-elem-7"></path></g></g></g><g fill="#000000" fill-opacity="1"><g transform="translate(633.421226, 304.821826)"><g><path d="M 10.484375 0 L 10.484375 -74.609375 L 21.953125 -74.609375 L 21.953125 0 Z M 16.328125 -87.046875 C 14.085938 -87.046875 12.164062 -87.804688 10.5625 -89.328125 C 8.957031 -90.847656 8.15625 -92.675781 8.15625 -94.8125 C 8.15625 -96.945312 8.957031 -98.773438 10.5625 -100.296875 C 12.164062 -101.816406 14.085938 -102.578125 16.328125 -102.578125 C 18.554688 -102.578125 20.472656 -101.816406 22.078125 -100.296875 C 23.679688 -98.773438 24.484375 -96.945312 24.484375 -94.8125 C 24.484375 -92.675781 23.679688 -90.847656 22.078125 -89.328125 C 20.472656 -87.804688 18.554688 -87.046875 16.328125 -87.046875 Z M 16.328125 -87.046875 " class="svg-elem-8"></path></g></g></g><g fill="#000000" fill-opacity="1"><g transform="translate(653.010633, 304.821826)"><g><path d="M 40.796875 1.546875 C 34.066406 1.546875 28.164062 -0.0507812 23.09375 -3.25 C 18.03125 -6.457031 14.082031 -10.941406 11.25 -16.703125 C 8.414062 -22.472656 7 -29.210938 7 -36.921875 C 7 -44.691406 8.414062 -51.472656 11.25 -57.265625 C 14.082031 -63.066406 18.03125 -67.566406 23.09375 -70.765625 C 28.164062 -73.972656 34.066406 -75.578125 40.796875 -75.578125 C 47.535156 -75.578125 53.4375 -73.972656 58.5 -70.765625 C 63.570312 -67.566406 67.523438 -63.066406 70.359375 -57.265625 C 73.191406 -51.472656 74.609375 -44.691406 74.609375 -36.921875 C 74.609375 -29.210938 73.191406 -22.472656 70.359375 -16.703125 C 67.523438 -10.941406 63.570312 -6.457031 58.5 -3.25 C 53.4375 -0.0507812 47.535156 1.546875 40.796875 1.546875 Z M 40.796875 -8.75 C 45.910156 -8.75 50.117188 -10.054688 53.421875 -12.671875 C 56.734375 -15.296875 59.179688 -18.742188 60.765625 -23.015625 C 62.347656 -27.296875 63.140625 -31.929688 63.140625 -36.921875 C 63.140625 -41.898438 62.347656 -46.539062 60.765625 -50.84375 C 59.179688 -55.15625 56.734375 -58.640625 53.421875 -61.296875 C 50.117188 -63.953125 45.910156 -65.28125 40.796875 -65.28125 C 35.679688 -65.28125 31.472656 -63.953125 28.171875 -61.296875 C 24.867188 -58.640625 22.421875 -55.15625 20.828125 -50.84375 C 19.242188 -46.539062 18.453125 -41.898438 18.453125 -36.921875 C 18.453125 -31.929688 19.242188 -27.296875 20.828125 -23.015625 C 22.421875 -18.742188 24.867188 -15.296875 28.171875 -12.671875 C 31.472656 -10.054688 35.679688 -8.75 40.796875 -8.75 Z M 40.796875 -8.75 " class="svg-elem-9"></path></g></g></g><g fill="#000000" fill-opacity="1"><g transform="translate(330.275877, 329.237469)"><g><path d="M 8.46875 -15.015625 L 8.46875 -13.5 L 1.09375 -13.5 L 1.09375 -15.015625 Z M 3.40625 0 L 3.40625 -17.21875 C 3.40625 -18.019531 3.59375 -18.695312 3.96875 -19.25 C 4.34375 -19.8125 4.832031 -20.234375 5.4375 -20.515625 C 6.039062 -20.804688 6.679688 -20.953125 7.359375 -20.953125 C 7.816406 -20.953125 8.195312 -20.914062 8.5 -20.84375 C 8.800781 -20.769531 9.039062 -20.695312 9.21875 -20.625 L 8.71875 -19.09375 C 8.582031 -19.132812 8.421875 -19.179688 8.234375 -19.234375 C 8.046875 -19.285156 7.804688 -19.3125 7.515625 -19.3125 C 6.765625 -19.3125 6.179688 -19.097656 5.765625 -18.671875 C 5.359375 -18.242188 5.15625 -17.640625 5.15625 -16.859375 L 5.140625 0 Z M 3.40625 0 " class="svg-elem-10"></path></g></g></g><g fill="#000000" fill-opacity="1"><g transform="translate(357.882449, 329.237469)"><g><path d="M 2.296875 0 L 2.296875 -15.015625 L 3.984375 -15.015625 L 3.984375 -12.703125 L 4.109375 -12.703125 C 4.410156 -13.460938 4.929688 -14.070312 5.671875 -14.53125 C 6.421875 -15 7.269531 -15.234375 8.21875 -15.234375 C 8.363281 -15.234375 8.523438 -15.226562 8.703125 -15.21875 C 8.878906 -15.21875 9.023438 -15.21875 9.140625 -15.21875 L 9.140625 -13.4375 C 9.066406 -13.457031 8.929688 -13.476562 8.734375 -13.5 C 8.535156 -13.53125 8.320312 -13.546875 8.09375 -13.546875 C 7.3125 -13.546875 6.613281 -13.378906 6 -13.046875 C 5.394531 -12.710938 4.914062 -12.253906 4.5625 -11.671875 C 4.207031 -11.097656 4.03125 -10.441406 4.03125 -9.703125 L 4.03125 0 Z M 2.296875 0 " class="svg-elem-11"></path></g></g></g><g fill="#000000" fill-opacity="1"><g transform="translate(385.64542, 329.237469)"><g><path d="M 8.140625 0.3125 C 6.835938 0.3125 5.6875 -0.015625 4.6875 -0.671875 C 3.695312 -1.328125 2.921875 -2.238281 2.359375 -3.40625 C 1.804688 -4.570312 1.53125 -5.914062 1.53125 -7.4375 C 1.53125 -8.976562 1.804688 -10.332031 2.359375 -11.5 C 2.921875 -12.664062 3.695312 -13.578125 4.6875 -14.234375 C 5.6875 -14.890625 6.835938 -15.21875 8.140625 -15.21875 C 9.429688 -15.21875 10.570312 -14.890625 11.5625 -14.234375 C 12.550781 -13.578125 13.328125 -12.664062 13.890625 -11.5 C 14.460938 -10.332031 14.75 -8.976562 14.75 -7.4375 C 14.75 -5.914062 14.46875 -4.570312 13.90625 -3.40625 C 13.34375 -2.238281 12.5625 -1.328125 11.5625 -0.671875 C 10.570312 -0.015625 9.429688 0.3125 8.140625 0.3125 Z M 8.140625 -1.28125 C 9.179688 -1.28125 10.0625 -1.5625 10.78125 -2.125 C 11.507812 -2.6875 12.0625 -3.429688 12.4375 -4.359375 C 12.8125 -5.296875 13 -6.320312 13 -7.4375 C 13 -8.5625 12.8125 -9.59375 12.4375 -10.53125 C 12.0625 -11.46875 11.507812 -12.21875 10.78125 -12.78125 C 10.0625 -13.351562 9.179688 -13.640625 8.140625 -13.640625 C 7.097656 -13.640625 6.210938 -13.351562 5.484375 -12.78125 C 4.765625 -12.21875 4.21875 -11.46875 3.84375 -10.53125 C 3.46875 -9.59375 3.28125 -8.5625 3.28125 -7.4375 C 3.28125 -6.320312 3.46875 -5.296875 3.84375 -4.359375 C 4.21875 -3.429688 4.765625 -2.6875 5.484375 -2.125 C 6.203125 -1.5625 7.085938 -1.28125 8.140625 -1.28125 Z M 8.140625 -1.28125 " class="svg-elem-12"></path></g></g></g><g fill="#000000" fill-opacity="1"><g transform="translate(419.859722, 329.237469)"><g><path d="M 4.03125 -9.390625 L 4.03125 0 L 2.296875 0 L 2.296875 -15.015625 L 3.984375 -15.015625 L 3.984375 -12.65625 L 4.140625 -12.65625 C 4.492188 -13.425781 5.039062 -14.046875 5.78125 -14.515625 C 6.53125 -14.984375 7.457031 -15.21875 8.5625 -15.21875 C 9.570312 -15.21875 10.457031 -15.003906 11.21875 -14.578125 C 11.988281 -14.160156 12.585938 -13.539062 13.015625 -12.71875 C 13.441406 -11.90625 13.65625 -10.910156 13.65625 -9.734375 L 13.65625 0 L 11.921875 0 L 11.921875 -9.625 C 11.921875 -10.851562 11.578125 -11.828125 10.890625 -12.546875 C 10.203125 -13.265625 9.28125 -13.625 8.125 -13.625 C 7.332031 -13.625 6.628906 -13.453125 6.015625 -13.109375 C 5.410156 -12.773438 4.925781 -12.289062 4.5625 -11.65625 C 4.207031 -11.019531 4.03125 -10.265625 4.03125 -9.390625 Z M 4.03125 -9.390625 " class="svg-elem-13"></path></g></g></g><g fill="#000000" fill-opacity="1"><g transform="translate(453.761237, 329.237469)"><g><path d="M 8.21875 -15.015625 L 8.21875 -13.5 L 1.046875 -13.5 L 1.046875 -15.015625 Z M 3.28125 -18.609375 L 5.03125 -18.609375 L 5.03125 -3.921875 C 5.03125 -3.296875 5.140625 -2.804688 5.359375 -2.453125 C 5.578125 -2.097656 5.859375 -1.84375 6.203125 -1.6875 C 6.546875 -1.539062 6.910156 -1.46875 7.296875 -1.46875 C 7.523438 -1.46875 7.722656 -1.484375 7.890625 -1.515625 C 8.054688 -1.546875 8.195312 -1.578125 8.3125 -1.609375 L 8.6875 -0.046875 C 8.519531 0.0234375 8.3125 0.0859375 8.0625 0.140625 C 7.8125 0.191406 7.503906 0.21875 7.140625 0.21875 C 6.503906 0.21875 5.890625 0.0820312 5.296875 -0.1875 C 4.710938 -0.46875 4.226562 -0.882812 3.84375 -1.4375 C 3.46875 -2 3.28125 -2.691406 3.28125 -3.515625 Z M 3.28125 -18.609375 " class="svg-elem-14"></path></g></g></g><g fill="#000000" fill-opacity="1"><g transform="translate(481.573079, 329.237469)"><g><path d="M 8.375 0.3125 C 6.96875 0.3125 5.753906 -0.015625 4.734375 -0.671875 C 3.710938 -1.328125 2.921875 -2.234375 2.359375 -3.390625 C 1.804688 -4.554688 1.53125 -5.898438 1.53125 -7.421875 C 1.53125 -8.929688 1.804688 -10.273438 2.359375 -11.453125 C 2.921875 -12.628906 3.691406 -13.550781 4.671875 -14.21875 C 5.660156 -14.882812 6.804688 -15.21875 8.109375 -15.21875 C 8.921875 -15.21875 9.703125 -15.066406 10.453125 -14.765625 C 11.210938 -14.472656 11.894531 -14.019531 12.5 -13.40625 C 13.101562 -12.800781 13.578125 -12.035156 13.921875 -11.109375 C 14.273438 -10.191406 14.453125 -9.101562 14.453125 -7.84375 L 14.453125 -6.984375 L 2.734375 -6.984375 L 2.734375 -8.53125 L 12.6875 -8.53125 C 12.6875 -9.488281 12.488281 -10.351562 12.09375 -11.125 C 11.707031 -11.90625 11.171875 -12.519531 10.484375 -12.96875 C 9.796875 -13.414062 9.003906 -13.640625 8.109375 -13.640625 C 7.148438 -13.640625 6.304688 -13.382812 5.578125 -12.875 C 4.859375 -12.363281 4.296875 -11.691406 3.890625 -10.859375 C 3.484375 -10.023438 3.28125 -9.113281 3.28125 -8.125 L 3.28125 -7.203125 C 3.28125 -6.015625 3.484375 -4.972656 3.890625 -4.078125 C 4.304688 -3.191406 4.894531 -2.503906 5.65625 -2.015625 C 6.414062 -1.523438 7.320312 -1.28125 8.375 -1.28125 C 9.082031 -1.28125 9.703125 -1.390625 10.234375 -1.609375 C 10.773438 -1.835938 11.226562 -2.132812 11.59375 -2.5 C 11.96875 -2.875 12.25 -3.289062 12.4375 -3.75 L 14.09375 -3.203125 C 13.863281 -2.578125 13.488281 -1.992188 12.96875 -1.453125 C 12.445312 -0.921875 11.800781 -0.492188 11.03125 -0.171875 C 10.257812 0.148438 9.375 0.3125 8.375 0.3125 Z M 8.375 0.3125 " class="svg-elem-15"></path></g></g></g><g fill="#000000" fill-opacity="1"><g transform="translate(515.503906, 329.237469)"><g><path d="M 4.03125 -9.390625 L 4.03125 0 L 2.296875 0 L 2.296875 -15.015625 L 3.984375 -15.015625 L 3.984375 -12.65625 L 4.140625 -12.65625 C 4.492188 -13.425781 5.039062 -14.046875 5.78125 -14.515625 C 6.53125 -14.984375 7.457031 -15.21875 8.5625 -15.21875 C 9.570312 -15.21875 10.457031 -15.003906 11.21875 -14.578125 C 11.988281 -14.160156 12.585938 -13.539062 13.015625 -12.71875 C 13.441406 -11.90625 13.65625 -10.910156 13.65625 -9.734375 L 13.65625 0 L 11.921875 0 L 11.921875 -9.625 C 11.921875 -10.851562 11.578125 -11.828125 10.890625 -12.546875 C 10.203125 -13.265625 9.28125 -13.625 8.125 -13.625 C 7.332031 -13.625 6.628906 -13.453125 6.015625 -13.109375 C 5.410156 -12.773438 4.925781 -12.289062 4.5625 -11.65625 C 4.207031 -11.019531 4.03125 -10.265625 4.03125 -9.390625 Z M 4.03125 -9.390625 " class="svg-elem-16"></path></g></g></g><g fill="#000000" fill-opacity="1"><g transform="translate(549.405427, 329.237469)"><g><path d="M 7.703125 0.3125 C 6.472656 0.3125 5.394531 -0.0078125 4.46875 -0.65625 C 3.539062 -1.3125 2.816406 -2.222656 2.296875 -3.390625 C 1.785156 -4.554688 1.53125 -5.914062 1.53125 -7.46875 C 1.53125 -9.007812 1.785156 -10.363281 2.296875 -11.53125 C 2.816406 -12.695312 3.539062 -13.601562 4.46875 -14.25 C 5.40625 -14.894531 6.492188 -15.21875 7.734375 -15.21875 C 8.648438 -15.21875 9.410156 -15.054688 10.015625 -14.734375 C 10.617188 -14.410156 11.101562 -14.007812 11.46875 -13.53125 C 11.832031 -13.0625 12.113281 -12.601562 12.3125 -12.15625 L 12.46875 -12.15625 L 12.46875 -20.015625 L 14.21875 -20.015625 L 14.21875 0 L 12.53125 0 L 12.53125 -2.78125 L 12.3125 -2.78125 C 12.113281 -2.332031 11.828125 -1.867188 11.453125 -1.390625 C 11.085938 -0.910156 10.597656 -0.503906 9.984375 -0.171875 C 9.378906 0.148438 8.617188 0.3125 7.703125 0.3125 Z M 7.90625 -1.28125 C 8.875 -1.28125 9.703125 -1.546875 10.390625 -2.078125 C 11.078125 -2.609375 11.597656 -3.34375 11.953125 -4.28125 C 12.316406 -5.21875 12.5 -6.289062 12.5 -7.5 C 12.5 -8.695312 12.316406 -9.753906 11.953125 -10.671875 C 11.597656 -11.597656 11.078125 -12.320312 10.390625 -12.84375 C 9.710938 -13.375 8.882812 -13.640625 7.90625 -13.640625 C 6.90625 -13.640625 6.0625 -13.363281 5.375 -12.8125 C 4.6875 -12.269531 4.164062 -11.535156 3.8125 -10.609375 C 3.457031 -9.691406 3.28125 -8.65625 3.28125 -7.5 C 3.28125 -6.332031 3.457031 -5.28125 3.8125 -4.34375 C 4.164062 -3.40625 4.6875 -2.660156 5.375 -2.109375 C 6.0625 -1.554688 6.90625 -1.28125 7.90625 -1.28125 Z M 7.90625 -1.28125 " class="svg-elem-17"></path></g></g></g><g fill="#000000" fill-opacity="1"><g transform="translate(584.235526, 329.237469)"><g></g></g></g><g fill="#000000" fill-opacity="1"><g transform="translate(609.926257, 329.237469)"><g><path d="M 7.703125 0.3125 C 6.472656 0.3125 5.394531 -0.0078125 4.46875 -0.65625 C 3.539062 -1.3125 2.816406 -2.222656 2.296875 -3.390625 C 1.785156 -4.554688 1.53125 -5.914062 1.53125 -7.46875 C 1.53125 -9.007812 1.785156 -10.363281 2.296875 -11.53125 C 2.816406 -12.695312 3.539062 -13.601562 4.46875 -14.25 C 5.40625 -14.894531 6.492188 -15.21875 7.734375 -15.21875 C 8.648438 -15.21875 9.410156 -15.054688 10.015625 -14.734375 C 10.617188 -14.410156 11.101562 -14.007812 11.46875 -13.53125 C 11.832031 -13.0625 12.113281 -12.601562 12.3125 -12.15625 L 12.46875 -12.15625 L 12.46875 -20.015625 L 14.21875 -20.015625 L 14.21875 0 L 12.53125 0 L 12.53125 -2.78125 L 12.3125 -2.78125 C 12.113281 -2.332031 11.828125 -1.867188 11.453125 -1.390625 C 11.085938 -0.910156 10.597656 -0.503906 9.984375 -0.171875 C 9.378906 0.148438 8.617188 0.3125 7.703125 0.3125 Z M 7.90625 -1.28125 C 8.875 -1.28125 9.703125 -1.546875 10.390625 -2.078125 C 11.078125 -2.609375 11.597656 -3.34375 11.953125 -4.28125 C 12.316406 -5.21875 12.5 -6.289062 12.5 -7.5 C 12.5 -8.695312 12.316406 -9.753906 11.953125 -10.671875 C 11.597656 -11.597656 11.078125 -12.320312 10.390625 -12.84375 C 9.710938 -13.375 8.882812 -13.640625 7.90625 -13.640625 C 6.90625 -13.640625 6.0625 -13.363281 5.375 -12.8125 C 4.6875 -12.269531 4.164062 -11.535156 3.8125 -10.609375 C 3.457031 -9.691406 3.28125 -8.65625 3.28125 -7.5 C 3.28125 -6.332031 3.457031 -5.28125 3.8125 -4.34375 C 4.164062 -3.40625 4.6875 -2.660156 5.375 -2.109375 C 6.0625 -1.554688 6.90625 -1.28125 7.90625 -1.28125 Z M 7.90625 -1.28125 " class="svg-elem-18"></path></g></g></g><g fill="#000000" fill-opacity="1"><g transform="translate(644.756357, 329.237469)"><g><path d="M 8.375 0.3125 C 6.96875 0.3125 5.753906 -0.015625 4.734375 -0.671875 C 3.710938 -1.328125 2.921875 -2.234375 2.359375 -3.390625 C 1.804688 -4.554688 1.53125 -5.898438 1.53125 -7.421875 C 1.53125 -8.929688 1.804688 -10.273438 2.359375 -11.453125 C 2.921875 -12.628906 3.691406 -13.550781 4.671875 -14.21875 C 5.660156 -14.882812 6.804688 -15.21875 8.109375 -15.21875 C 8.921875 -15.21875 9.703125 -15.066406 10.453125 -14.765625 C 11.210938 -14.472656 11.894531 -14.019531 12.5 -13.40625 C 13.101562 -12.800781 13.578125 -12.035156 13.921875 -11.109375 C 14.273438 -10.191406 14.453125 -9.101562 14.453125 -7.84375 L 14.453125 -6.984375 L 2.734375 -6.984375 L 2.734375 -8.53125 L 12.6875 -8.53125 C 12.6875 -9.488281 12.488281 -10.351562 12.09375 -11.125 C 11.707031 -11.90625 11.171875 -12.519531 10.484375 -12.96875 C 9.796875 -13.414062 9.003906 -13.640625 8.109375 -13.640625 C 7.148438 -13.640625 6.304688 -13.382812 5.578125 -12.875 C 4.859375 -12.363281 4.296875 -11.691406 3.890625 -10.859375 C 3.484375 -10.023438 3.28125 -9.113281 3.28125 -8.125 L 3.28125 -7.203125 C 3.28125 -6.015625 3.484375 -4.972656 3.890625 -4.078125 C 4.304688 -3.191406 4.894531 -2.503906 5.65625 -2.015625 C 6.414062 -1.523438 7.320312 -1.28125 8.375 -1.28125 C 9.082031 -1.28125 9.703125 -1.390625 10.234375 -1.609375 C 10.773438 -1.835938 11.226562 -2.132812 11.59375 -2.5 C 11.96875 -2.875 12.25 -3.289062 12.4375 -3.75 L 14.09375 -3.203125 C 13.863281 -2.578125 13.488281 -1.992188 12.96875 -1.453125 C 12.445312 -0.921875 11.800781 -0.492188 11.03125 -0.171875 C 10.257812 0.148438 9.375 0.3125 8.375 0.3125 Z M 8.375 0.3125 " class="svg-elem-19"></path></g></g></g><g fill="#000000" fill-opacity="1"><g transform="translate(678.687184, 329.237469)"><g><path d="M 13.921875 -15.015625 L 8.4375 0 L 6.578125 0 L 1.09375 -15.015625 L 2.984375 -15.015625 L 7.4375 -2.296875 L 7.578125 -2.296875 L 12.03125 -15.015625 Z M 13.921875 -15.015625 " class="svg-elem-20"></path></g></g></g><g fill="#000000" fill-opacity="1"><g transform="translate(484.166921, 506.204442)"><g><path d="M 1.953125 0 L 1.953125 -13.484375 L 9.46875 -13.484375 L 9.46875 -12.71875 L 2.765625 -12.71875 L 2.765625 -7.125 L 8.84375 -7.125 L 8.84375 -6.359375 L 2.765625 -6.359375 L 2.765625 0 Z M 1.953125 0 " class="svg-elem-21"></path></g></g></g><g fill="#000000" fill-opacity="1"><g transform="translate(496.129677, 506.204442)"><g><path d="M 2.46875 -13.484375 L 2.46875 0 L 1.671875 0 L 1.671875 -13.484375 Z M 2.46875 -13.484375 " class="svg-elem-22"></path></g></g></g><g fill="#000000" fill-opacity="1"><g transform="translate(501.37407, 506.204442)"><g><path d="M 4.34375 0.21875 C 3.757812 0.21875 3.222656 0.101562 2.734375 -0.125 C 2.253906 -0.363281 1.867188 -0.707031 1.578125 -1.15625 C 1.285156 -1.601562 1.140625 -2.144531 1.140625 -2.78125 C 1.140625 -3.207031 1.210938 -3.578125 1.359375 -3.890625 C 1.503906 -4.210938 1.734375 -4.488281 2.046875 -4.71875 C 2.359375 -4.957031 2.757812 -5.148438 3.25 -5.296875 C 3.738281 -5.453125 4.320312 -5.570312 5 -5.65625 C 5.507812 -5.71875 5.960938 -5.773438 6.359375 -5.828125 C 6.765625 -5.890625 7.082031 -5.984375 7.3125 -6.109375 C 7.550781 -6.234375 7.671875 -6.425781 7.671875 -6.6875 L 7.671875 -7.109375 C 7.671875 -7.847656 7.4375 -8.429688 6.96875 -8.859375 C 6.5 -9.296875 5.859375 -9.515625 5.046875 -9.515625 C 4.328125 -9.515625 3.71875 -9.351562 3.21875 -9.03125 C 2.726562 -8.71875 2.382812 -8.3125 2.1875 -7.8125 L 1.421875 -8.09375 C 1.617188 -8.582031 1.898438 -8.984375 2.265625 -9.296875 C 2.628906 -9.617188 3.050781 -9.859375 3.53125 -10.015625 C 4.007812 -10.179688 4.507812 -10.265625 5.03125 -10.265625 C 5.476562 -10.265625 5.90625 -10.195312 6.3125 -10.0625 C 6.726562 -9.9375 7.097656 -9.742188 7.421875 -9.484375 C 7.742188 -9.222656 8 -8.890625 8.1875 -8.484375 C 8.375 -8.085938 8.46875 -7.613281 8.46875 -7.0625 L 8.46875 0 L 7.671875 0 L 7.671875 -1.828125 L 7.609375 -1.828125 C 7.429688 -1.441406 7.1875 -1.09375 6.875 -0.78125 C 6.570312 -0.476562 6.207031 -0.234375 5.78125 -0.046875 C 5.351562 0.128906 4.875 0.21875 4.34375 0.21875 Z M 4.421875 -0.53125 C 5.054688 -0.53125 5.617188 -0.679688 6.109375 -0.984375 C 6.597656 -1.296875 6.976562 -1.722656 7.25 -2.265625 C 7.53125 -2.804688 7.671875 -3.414062 7.671875 -4.09375 L 7.671875 -5.59375 C 7.566406 -5.5 7.414062 -5.414062 7.21875 -5.34375 C 7.03125 -5.28125 6.816406 -5.222656 6.578125 -5.171875 C 6.335938 -5.117188 6.085938 -5.070312 5.828125 -5.03125 C 5.566406 -5 5.316406 -4.96875 5.078125 -4.9375 C 4.335938 -4.851562 3.734375 -4.71875 3.265625 -4.53125 C 2.804688 -4.351562 2.46875 -4.113281 2.25 -3.8125 C 2.039062 -3.519531 1.9375 -3.164062 1.9375 -2.75 C 1.9375 -2.0625 2.171875 -1.519531 2.640625 -1.125 C 3.117188 -0.726562 3.710938 -0.53125 4.421875 -0.53125 Z M 4.421875 -0.53125 " class="svg-elem-23"></path></g></g></g><g fill="#000000" fill-opacity="1"><g transform="translate(512.652483, 506.204442)"><g><path d="M 9.0625 -10.109375 L 5.40625 0 L 4.5 0 L 0.84375 -10.109375 L 1.703125 -10.109375 L 4.921875 -1.03125 L 4.984375 -1.03125 L 8.1875 -10.109375 Z M 9.0625 -10.109375 " class="svg-elem-24"></path></g></g></g><g fill="#000000" fill-opacity="1"><g transform="translate(523.661118, 506.204442)"><g><path d="M 1.703125 0 L 1.703125 -10.109375 L 2.5 -10.109375 L 2.5 0 Z M 2.109375 -11.890625 C 1.929688 -11.890625 1.773438 -11.953125 1.640625 -12.078125 C 1.515625 -12.203125 1.453125 -12.351562 1.453125 -12.53125 C 1.453125 -12.707031 1.515625 -12.851562 1.640625 -12.96875 C 1.773438 -13.09375 1.929688 -13.15625 2.109375 -13.15625 C 2.285156 -13.15625 2.4375 -13.09375 2.5625 -12.96875 C 2.6875 -12.851562 2.75 -12.707031 2.75 -12.53125 C 2.75 -12.351562 2.6875 -12.203125 2.5625 -12.078125 C 2.4375 -11.953125 2.285156 -11.890625 2.109375 -11.890625 Z M 2.109375 -11.890625 " class="svg-elem-25"></path></g></g></g><g fill="#000000" fill-opacity="1"><g transform="translate(528.977894, 506.204442)"><g><path d="M 5.421875 0.203125 C 4.585938 0.203125 3.84375 -0.0195312 3.1875 -0.46875 C 2.539062 -0.914062 2.03125 -1.53125 1.65625 -2.3125 C 1.289062 -3.101562 1.109375 -4.003906 1.109375 -5.015625 C 1.109375 -6.035156 1.289062 -6.9375 1.65625 -7.71875 C 2.03125 -8.507812 2.539062 -9.128906 3.1875 -9.578125 C 3.84375 -10.035156 4.585938 -10.265625 5.421875 -10.265625 C 6.253906 -10.265625 6.992188 -10.035156 7.640625 -9.578125 C 8.296875 -9.128906 8.804688 -8.507812 9.171875 -7.71875 C 9.546875 -6.925781 9.734375 -6.023438 9.734375 -5.015625 C 9.734375 -4.003906 9.546875 -3.101562 9.171875 -2.3125 C 8.804688 -1.53125 8.296875 -0.914062 7.640625 -0.46875 C 6.992188 -0.0195312 6.253906 0.203125 5.421875 0.203125 Z M 5.421875 -0.53125 C 6.128906 -0.53125 6.742188 -0.726562 7.265625 -1.125 C 7.796875 -1.53125 8.207031 -2.070312 8.5 -2.75 C 8.789062 -3.425781 8.9375 -4.179688 8.9375 -5.015625 C 8.9375 -5.847656 8.789062 -6.601562 8.5 -7.28125 C 8.207031 -7.96875 7.796875 -8.507812 7.265625 -8.90625 C 6.742188 -9.3125 6.128906 -9.515625 5.421875 -9.515625 C 4.710938 -9.515625 4.09375 -9.3125 3.5625 -8.90625 C 3.039062 -8.507812 2.632812 -7.96875 2.34375 -7.28125 C 2.050781 -6.601562 1.90625 -5.847656 1.90625 -5.015625 C 1.90625 -4.179688 2.050781 -3.425781 2.34375 -2.75 C 2.632812 -2.070312 3.039062 -1.53125 3.5625 -1.125 C 4.09375 -0.726562 4.710938 -0.53125 5.421875 -0.53125 Z M 5.421875 -0.53125 " class="svg-elem-26"></path></g></g></g><g fill="#000000" fill-opacity="1"><g transform="translate(465.004399, 523.446026)"><g><path d="M 1.953125 0 L 1.953125 -13.484375 L 6.328125 -13.484375 C 7.140625 -13.484375 7.828125 -13.335938 8.390625 -13.046875 C 8.953125 -12.753906 9.378906 -12.347656 9.671875 -11.828125 C 9.960938 -11.304688 10.109375 -10.695312 10.109375 -10 C 10.109375 -9.457031 10.019531 -8.972656 9.84375 -8.546875 C 9.664062 -8.128906 9.421875 -7.78125 9.109375 -7.5 C 8.796875 -7.226562 8.429688 -7.039062 8.015625 -6.9375 L 8.015625 -6.859375 C 8.472656 -6.828125 8.898438 -6.664062 9.296875 -6.375 C 9.703125 -6.09375 10.023438 -5.703125 10.265625 -5.203125 C 10.515625 -4.710938 10.640625 -4.144531 10.640625 -3.5 C 10.640625 -2.8125 10.488281 -2.203125 10.1875 -1.671875 C 9.894531 -1.148438 9.453125 -0.738281 8.859375 -0.4375 C 8.273438 -0.144531 7.546875 0 6.671875 0 Z M 2.765625 -0.765625 L 6.671875 -0.765625 C 7.691406 -0.765625 8.472656 -1.019531 9.015625 -1.53125 C 9.566406 -2.039062 9.84375 -2.695312 9.84375 -3.5 C 9.84375 -4.0625 9.707031 -4.566406 9.4375 -5.015625 C 9.175781 -5.460938 8.8125 -5.816406 8.34375 -6.078125 C 7.875 -6.335938 7.328125 -6.46875 6.703125 -6.46875 L 2.765625 -6.46875 Z M 2.765625 -7.21875 L 6.609375 -7.21875 C 7.179688 -7.21875 7.664062 -7.34375 8.0625 -7.59375 C 8.46875 -7.84375 8.773438 -8.175781 8.984375 -8.59375 C 9.203125 -9.019531 9.3125 -9.488281 9.3125 -10 C 9.3125 -10.832031 9.050781 -11.492188 8.53125 -11.984375 C 8.019531 -12.472656 7.285156 -12.71875 6.328125 -12.71875 L 2.765625 -12.71875 Z M 2.765625 -7.21875 " class="svg-elem-27"></path></g></g></g><g fill="#000000" fill-opacity="1"><g transform="translate(478.046309, 523.446026)"><g><path d="M 5.609375 0.203125 C 4.691406 0.203125 3.894531 -0.0195312 3.21875 -0.46875 C 2.550781 -0.914062 2.03125 -1.53125 1.65625 -2.3125 C 1.289062 -3.101562 1.109375 -4.003906 1.109375 -5.015625 C 1.109375 -6.015625 1.289062 -6.910156 1.65625 -7.703125 C 2.03125 -8.492188 2.539062 -9.117188 3.1875 -9.578125 C 3.84375 -10.035156 4.585938 -10.265625 5.421875 -10.265625 C 5.984375 -10.265625 6.515625 -10.148438 7.015625 -9.921875 C 7.523438 -9.691406 7.972656 -9.363281 8.359375 -8.9375 C 8.753906 -8.519531 9.0625 -8.007812 9.28125 -7.40625 C 9.5 -6.800781 9.609375 -6.125 9.609375 -5.375 L 9.609375 -4.875 L 1.609375 -4.875 L 1.609375 -5.609375 L 8.8125 -5.609375 C 8.8125 -6.335938 8.660156 -6.992188 8.359375 -7.578125 C 8.066406 -8.171875 7.660156 -8.640625 7.140625 -8.984375 C 6.628906 -9.335938 6.054688 -9.515625 5.421875 -9.515625 C 4.742188 -9.515625 4.144531 -9.328125 3.625 -8.953125 C 3.101562 -8.578125 2.6875 -8.066406 2.375 -7.421875 C 2.070312 -6.785156 1.914062 -6.078125 1.90625 -5.296875 L 1.90625 -4.96875 C 1.90625 -4.125 2.050781 -3.367188 2.34375 -2.703125 C 2.644531 -2.035156 3.070312 -1.503906 3.625 -1.109375 C 4.175781 -0.722656 4.835938 -0.53125 5.609375 -0.53125 C 6.160156 -0.53125 6.628906 -0.625 7.015625 -0.8125 C 7.410156 -1 7.734375 -1.222656 7.984375 -1.484375 C 8.234375 -1.753906 8.425781 -2.015625 8.5625 -2.265625 L 9.28125 -1.96875 C 9.132812 -1.632812 8.898438 -1.296875 8.578125 -0.953125 C 8.253906 -0.617188 7.84375 -0.34375 7.34375 -0.125 C 6.851562 0.09375 6.273438 0.203125 5.609375 0.203125 Z M 5.609375 0.203125 " class="svg-elem-28"></path></g></g></g><g fill="#000000" fill-opacity="1"><g transform="translate(489.877465, 523.446026)"><g><path d="M 1.671875 0 L 1.671875 -10.109375 L 2.453125 -10.109375 L 2.453125 -8.53125 L 2.515625 -8.53125 C 2.734375 -9.050781 3.101562 -9.46875 3.625 -9.78125 C 4.15625 -10.09375 4.753906 -10.25 5.421875 -10.25 C 5.484375 -10.25 5.550781 -10.25 5.625 -10.25 C 5.695312 -10.25 5.765625 -10.242188 5.828125 -10.234375 L 5.828125 -9.4375 C 5.773438 -9.4375 5.710938 -9.441406 5.640625 -9.453125 C 5.566406 -9.460938 5.476562 -9.46875 5.375 -9.46875 C 4.8125 -9.46875 4.3125 -9.347656 3.875 -9.109375 C 3.4375 -8.867188 3.09375 -8.535156 2.84375 -8.109375 C 2.59375 -7.679688 2.46875 -7.195312 2.46875 -6.65625 L 2.46875 0 Z M 1.671875 0 " class="svg-elem-29"></path></g></g></g><g fill="#000000" fill-opacity="1"><g transform="translate(497.306476, 523.446026)"><g><path d="M 2.46875 -6.546875 L 2.46875 0 L 1.671875 0 L 1.671875 -10.109375 L 2.453125 -10.109375 L 2.453125 -8.515625 L 2.53125 -8.515625 C 2.757812 -9.035156 3.132812 -9.453125 3.65625 -9.765625 C 4.1875 -10.078125 4.8125 -10.234375 5.53125 -10.234375 C 6.207031 -10.234375 6.800781 -10.085938 7.3125 -9.796875 C 7.832031 -9.515625 8.238281 -9.101562 8.53125 -8.5625 C 8.820312 -8.03125 8.96875 -7.398438 8.96875 -6.671875 L 8.96875 0 L 8.171875 0 L 8.171875 -6.640625 C 8.171875 -7.492188 7.914062 -8.179688 7.40625 -8.703125 C 6.894531 -9.234375 6.21875 -9.5 5.375 -9.5 C 4.8125 -9.5 4.3125 -9.375 3.875 -9.125 C 3.4375 -8.882812 3.09375 -8.539062 2.84375 -8.09375 C 2.59375 -7.65625 2.46875 -7.140625 2.46875 -6.546875 Z M 2.46875 -6.546875 " class="svg-elem-30"></path></g></g></g><g fill="#000000" fill-opacity="1"><g transform="translate(509.052083, 523.446026)"><g><path d="M 4.34375 0.21875 C 3.757812 0.21875 3.222656 0.101562 2.734375 -0.125 C 2.253906 -0.363281 1.867188 -0.707031 1.578125 -1.15625 C 1.285156 -1.601562 1.140625 -2.144531 1.140625 -2.78125 C 1.140625 -3.207031 1.210938 -3.578125 1.359375 -3.890625 C 1.503906 -4.210938 1.734375 -4.488281 2.046875 -4.71875 C 2.359375 -4.957031 2.757812 -5.148438 3.25 -5.296875 C 3.738281 -5.453125 4.320312 -5.570312 5 -5.65625 C 5.507812 -5.71875 5.960938 -5.773438 6.359375 -5.828125 C 6.765625 -5.890625 7.082031 -5.984375 7.3125 -6.109375 C 7.550781 -6.234375 7.671875 -6.425781 7.671875 -6.6875 L 7.671875 -7.109375 C 7.671875 -7.847656 7.4375 -8.429688 6.96875 -8.859375 C 6.5 -9.296875 5.859375 -9.515625 5.046875 -9.515625 C 4.328125 -9.515625 3.71875 -9.351562 3.21875 -9.03125 C 2.726562 -8.71875 2.382812 -8.3125 2.1875 -7.8125 L 1.421875 -8.09375 C 1.617188 -8.582031 1.898438 -8.984375 2.265625 -9.296875 C 2.628906 -9.617188 3.050781 -9.859375 3.53125 -10.015625 C 4.007812 -10.179688 4.507812 -10.265625 5.03125 -10.265625 C 5.476562 -10.265625 5.90625 -10.195312 6.3125 -10.0625 C 6.726562 -9.9375 7.097656 -9.742188 7.421875 -9.484375 C 7.742188 -9.222656 8 -8.890625 8.1875 -8.484375 C 8.375 -8.085938 8.46875 -7.613281 8.46875 -7.0625 L 8.46875 0 L 7.671875 0 L 7.671875 -1.828125 L 7.609375 -1.828125 C 7.429688 -1.441406 7.1875 -1.09375 6.875 -0.78125 C 6.570312 -0.476562 6.207031 -0.234375 5.78125 -0.046875 C 5.351562 0.128906 4.875 0.21875 4.34375 0.21875 Z M 4.421875 -0.53125 C 5.054688 -0.53125 5.617188 -0.679688 6.109375 -0.984375 C 6.597656 -1.296875 6.976562 -1.722656 7.25 -2.265625 C 7.53125 -2.804688 7.671875 -3.414062 7.671875 -4.09375 L 7.671875 -5.59375 C 7.566406 -5.5 7.414062 -5.414062 7.21875 -5.34375 C 7.03125 -5.28125 6.816406 -5.222656 6.578125 -5.171875 C 6.335938 -5.117188 6.085938 -5.070312 5.828125 -5.03125 C 5.566406 -5 5.316406 -4.96875 5.078125 -4.9375 C 4.335938 -4.851562 3.734375 -4.71875 3.265625 -4.53125 C 2.804688 -4.351562 2.46875 -4.113281 2.25 -3.8125 C 2.039062 -3.519531 1.9375 -3.164062 1.9375 -2.75 C 1.9375 -2.0625 2.171875 -1.519531 2.640625 -1.125 C 3.117188 -0.726562 3.710938 -0.53125 4.421875 -0.53125 Z M 4.421875 -0.53125 " class="svg-elem-31"></path></g></g></g><g fill="#000000" fill-opacity="1"><g transform="translate(520.330499, 523.446026)"><g><path d="M 5.453125 0.203125 C 4.597656 0.203125 3.84375 -0.0195312 3.1875 -0.46875 C 2.53125 -0.925781 2.019531 -1.546875 1.65625 -2.328125 C 1.289062 -3.117188 1.109375 -4.015625 1.109375 -5.015625 C 1.109375 -6.015625 1.289062 -6.910156 1.65625 -7.703125 C 2.03125 -8.492188 2.539062 -9.117188 3.1875 -9.578125 C 3.84375 -10.035156 4.597656 -10.265625 5.453125 -10.265625 C 6.085938 -10.265625 6.671875 -10.128906 7.203125 -9.859375 C 7.734375 -9.597656 8.171875 -9.234375 8.515625 -8.765625 C 8.867188 -8.296875 9.09375 -7.753906 9.1875 -7.140625 L 8.375 -7.140625 C 8.238281 -7.816406 7.90625 -8.378906 7.375 -8.828125 C 6.851562 -9.285156 6.210938 -9.515625 5.453125 -9.515625 C 4.765625 -9.515625 4.15625 -9.320312 3.625 -8.9375 C 3.09375 -8.550781 2.671875 -8.019531 2.359375 -7.34375 C 2.054688 -6.675781 1.90625 -5.90625 1.90625 -5.03125 C 1.90625 -4.175781 2.050781 -3.410156 2.34375 -2.734375 C 2.644531 -2.054688 3.0625 -1.519531 3.59375 -1.125 C 4.132812 -0.726562 4.753906 -0.53125 5.453125 -0.53125 C 5.953125 -0.53125 6.40625 -0.628906 6.8125 -0.828125 C 7.21875 -1.023438 7.5625 -1.304688 7.84375 -1.671875 C 8.125 -2.035156 8.304688 -2.460938 8.390625 -2.953125 L 9.203125 -2.953125 C 9.109375 -2.328125 8.890625 -1.773438 8.546875 -1.296875 C 8.203125 -0.828125 7.765625 -0.457031 7.234375 -0.1875 C 6.703125 0.0703125 6.109375 0.203125 5.453125 0.203125 Z M 5.453125 0.203125 " class="svg-elem-32"></path></g></g></g><g fill="#000000" fill-opacity="1"><g transform="translate(531.714206, 523.446026)"><g><path d="M 2.46875 -6.546875 L 2.46875 0 L 1.671875 0 L 1.671875 -13.484375 L 2.46875 -13.484375 L 2.46875 -8.515625 L 2.546875 -8.515625 C 2.785156 -9.035156 3.164062 -9.453125 3.6875 -9.765625 C 4.207031 -10.078125 4.828125 -10.234375 5.546875 -10.234375 C 6.234375 -10.234375 6.832031 -10.085938 7.34375 -9.796875 C 7.863281 -9.515625 8.269531 -9.109375 8.5625 -8.578125 C 8.851562 -8.046875 9 -7.410156 9 -6.671875 L 9 0 L 8.203125 0 L 8.203125 -6.640625 C 8.203125 -7.492188 7.945312 -8.179688 7.4375 -8.703125 C 6.925781 -9.234375 6.25 -9.5 5.40625 -9.5 C 4.832031 -9.5 4.320312 -9.375 3.875 -9.125 C 3.4375 -8.882812 3.09375 -8.539062 2.84375 -8.09375 C 2.59375 -7.65625 2.46875 -7.140625 2.46875 -6.546875 Z M 2.46875 -6.546875 " class="svg-elem-33"></path></g></g></g><g fill="#000000" fill-opacity="1"><g transform="translate(543.492724, 523.446026)"><g><path d="M 1.703125 0 L 1.703125 -10.109375 L 2.5 -10.109375 L 2.5 0 Z M 2.109375 -11.890625 C 1.929688 -11.890625 1.773438 -11.953125 1.640625 -12.078125 C 1.515625 -12.203125 1.453125 -12.351562 1.453125 -12.53125 C 1.453125 -12.707031 1.515625 -12.851562 1.640625 -12.96875 C 1.773438 -13.09375 1.929688 -13.15625 2.109375 -13.15625 C 2.285156 -13.15625 2.4375 -13.09375 2.5625 -12.96875 C 2.6875 -12.851562 2.75 -12.707031 2.75 -12.53125 C 2.75 -12.351562 2.6875 -12.203125 2.5625 -12.078125 C 2.4375 -11.953125 2.285156 -11.890625 2.109375 -11.890625 Z M 2.109375 -11.890625 " class="svg-elem-34"></path></g></g></g><g fill="#000000" fill-opacity="1"><g transform="translate(548.809498, 523.446026)"><g><path d="M 4.34375 0.21875 C 3.757812 0.21875 3.222656 0.101562 2.734375 -0.125 C 2.253906 -0.363281 1.867188 -0.707031 1.578125 -1.15625 C 1.285156 -1.601562 1.140625 -2.144531 1.140625 -2.78125 C 1.140625 -3.207031 1.210938 -3.578125 1.359375 -3.890625 C 1.503906 -4.210938 1.734375 -4.488281 2.046875 -4.71875 C 2.359375 -4.957031 2.757812 -5.148438 3.25 -5.296875 C 3.738281 -5.453125 4.320312 -5.570312 5 -5.65625 C 5.507812 -5.71875 5.960938 -5.773438 6.359375 -5.828125 C 6.765625 -5.890625 7.082031 -5.984375 7.3125 -6.109375 C 7.550781 -6.234375 7.671875 -6.425781 7.671875 -6.6875 L 7.671875 -7.109375 C 7.671875 -7.847656 7.4375 -8.429688 6.96875 -8.859375 C 6.5 -9.296875 5.859375 -9.515625 5.046875 -9.515625 C 4.328125 -9.515625 3.71875 -9.351562 3.21875 -9.03125 C 2.726562 -8.71875 2.382812 -8.3125 2.1875 -7.8125 L 1.421875 -8.09375 C 1.617188 -8.582031 1.898438 -8.984375 2.265625 -9.296875 C 2.628906 -9.617188 3.050781 -9.859375 3.53125 -10.015625 C 4.007812 -10.179688 4.507812 -10.265625 5.03125 -10.265625 C 5.476562 -10.265625 5.90625 -10.195312 6.3125 -10.0625 C 6.726562 -9.9375 7.097656 -9.742188 7.421875 -9.484375 C 7.742188 -9.222656 8 -8.890625 8.1875 -8.484375 C 8.375 -8.085938 8.46875 -7.613281 8.46875 -7.0625 L 8.46875 0 L 7.671875 0 L 7.671875 -1.828125 L 7.609375 -1.828125 C 7.429688 -1.441406 7.1875 -1.09375 6.875 -0.78125 C 6.570312 -0.476562 6.207031 -0.234375 5.78125 -0.046875 C 5.351562 0.128906 4.875 0.21875 4.34375 0.21875 Z M 4.421875 -0.53125 C 5.054688 -0.53125 5.617188 -0.679688 6.109375 -0.984375 C 6.597656 -1.296875 6.976562 -1.722656 7.25 -2.265625 C 7.53125 -2.804688 7.671875 -3.414062 7.671875 -4.09375 L 7.671875 -5.59375 C 7.566406 -5.5 7.414062 -5.414062 7.21875 -5.34375 C 7.03125 -5.28125 6.816406 -5.222656 6.578125 -5.171875 C 6.335938 -5.117188 6.085938 -5.070312 5.828125 -5.03125 C 5.566406 -5 5.316406 -4.96875 5.078125 -4.9375 C 4.335938 -4.851562 3.734375 -4.71875 3.265625 -4.53125 C 2.804688 -4.351562 2.46875 -4.113281 2.25 -3.8125 C 2.039062 -3.519531 1.9375 -3.164062 1.9375 -2.75 C 1.9375 -2.0625 2.171875 -1.519531 2.640625 -1.125 C 3.117188 -0.726562 3.710938 -0.53125 4.421875 -0.53125 Z M 4.421875 -0.53125 " class="svg-elem-35"></path></g></g></g></svg>