<svg xmlns="http://www.w3.org/2000/svg" xmlns:xlink="http://www.w3.org/1999/xlink" width="1366" zoomAndPan="magnify" viewBox="0 0 1024.5 576" height="768" preserveAspectRatio="xMidYMid meet" version="1.0"><defs><g/></defs><g fill="#000000" fill-opacity="1"><g transform="translate(925.006221, 300.844129)"><g><path d="M -12.421875 0 L -12.421875 142.84375 L -106.984375 142.84375 L -106.984375 117.9375 L -42.609375 117.9375 L -42.609375 83.90625 L -100.71875 83.90625 L -100.71875 59 L -42.609375 59 L -42.609375 0 Z M -12.421875 0 "/></g></g></g><g fill="#000000" fill-opacity="1"><g transform="translate(790.69382, 300.844129)"><g><path d="M -12.421875 0 L -12.421875 142.84375 L -42.609375 142.84375 L -42.609375 24.90625 L -103.859375 24.90625 L -103.859375 0 Z M -12.421875 0 "/></g></g></g><g fill="#000000" fill-opacity="1"><g transform="translate(659.798884, 300.844129)"><g><path d="M -37.03125 0 L -4.671875 0 L -53.984375 142.84375 L -92.90625 142.84375 L -142.140625 0 L -109.78125 0 L -99.171875 32.578125 L -47.640625 32.578125 Z M -55.3125 56.140625 L -91.578125 56.140625 L -74 110.203125 L -72.890625 110.203125 Z M -55.3125 56.140625 "/></g></g></g><g fill="#000000" fill-opacity="1"><g transform="translate(493.474016, 300.844129)"><g><path d="M -38.21875 142.84375 L -72.75 34.3125 L -74.078125 34.3125 L -108.671875 142.84375 L -142.140625 142.84375 L -92.90625 0 L -53.984375 0 L -4.671875 142.84375 Z M -38.21875 142.84375 "/></g></g></g><g fill="#000000" fill-opacity="1"><g transform="translate(327.149171, 300.844129)"><g><path d="M -42.609375 142.84375 L -42.609375 0 L -12.421875 0 L -12.421875 142.84375 Z M -42.609375 142.84375 "/></g></g></g><g fill="#000000" fill-opacity="1"><g transform="translate(252.607269, 300.844129)"><g><path d="M -143.671875 71.421875 C -143.671875 55.847656 -140.726562 42.597656 -134.84375 31.671875 C -128.96875 20.742188 -120.984375 12.40625 -110.890625 6.65625 C -100.804688 0.914062 -89.441406 -1.953125 -76.796875 -1.953125 C -64.097656 -1.953125 -52.703125 0.925781 -42.609375 6.6875 C -32.523438 12.457031 -24.550781 20.816406 -18.6875 31.765625 C -12.832031 42.710938 -9.90625 55.929688 -9.90625 71.421875 C -9.90625 86.992188 -12.832031 100.242188 -18.6875 111.171875 C -24.550781 122.097656 -32.523438 130.429688 -42.609375 136.171875 C -52.703125 141.921875 -64.097656 144.796875 -76.796875 144.796875 C -89.441406 144.796875 -100.804688 141.921875 -110.890625 136.171875 C -120.984375 130.429688 -128.96875 122.097656 -134.84375 111.171875 C -140.726562 100.242188 -143.671875 86.992188 -143.671875 71.421875 Z M -113.0625 71.421875 C -113.0625 86.578125 -109.757812 98.140625 -103.15625 106.109375 C -96.550781 114.085938 -87.765625 118.078125 -76.796875 118.078125 C -65.816406 118.078125 -57.023438 114.085938 -50.421875 106.109375 C -43.816406 98.140625 -40.515625 86.578125 -40.515625 71.421875 C -40.515625 56.304688 -43.816406 44.75 -50.421875 36.75 C -57.023438 28.757812 -65.816406 24.765625 -76.796875 24.765625 C -87.765625 24.765625 -96.550781 28.757812 -103.15625 36.75 C -109.757812 44.75 -113.0625 56.304688 -113.0625 71.421875 Z M -113.0625 71.421875 "/></g></g></g><g fill="#000000" fill-opacity="1"><g transform="translate(117.028288, 275.145159)"><g><path d="M 17.296875 0 L 17.296875 -142.84375 L 102.953125 -142.84375 L 102.953125 -127.5 L 34.59375 -127.5 L 34.59375 -79.234375 L 96.53125 -79.234375 L 96.53125 -63.890625 L 34.59375 -63.890625 L 34.59375 0 Z M 17.296875 0 "/></g></g></g><g fill="#000000" fill-opacity="1"><g transform="translate(251.689395, 275.145159)"><g><path d="M 17.296875 0 L 17.296875 -142.84375 L 34.59375 -142.84375 L 34.59375 -15.34375 L 101 -15.34375 L 101 0 Z M 17.296875 0 "/></g></g></g><g fill="#000000" fill-opacity="1"><g transform="translate(381.607932, 275.145159)"><g><path d="M 23.15625 0 L 5.015625 0 L 57.46875 -142.84375 L 75.328125 -142.84375 L 127.78125 0 L 109.640625 0 L 95.28125 -40.453125 L 37.53125 -40.453125 Z M 42.96875 -55.796875 L 89.828125 -55.796875 L 66.953125 -120.25 L 65.84375 -120.25 Z M 42.96875 -55.796875 "/></g></g></g><g fill="#000000" fill-opacity="1"><g transform="translate(533.844513, 275.145159)"><g><path d="M 23.15625 -142.84375 L 65.5625 -22.59375 L 67.234375 -22.59375 L 109.640625 -142.84375 L 127.78125 -142.84375 L 75.328125 0 L 57.46875 0 L 5.015625 -142.84375 Z M 23.15625 -142.84375 "/></g></g></g><g fill="#000000" fill-opacity="1"><g transform="translate(686.081072, 275.145159)"><g><path d="M 34.59375 -142.84375 L 34.59375 0 L 17.296875 0 L 17.296875 -142.84375 Z M 34.59375 -142.84375 "/></g></g></g><g fill="#000000" fill-opacity="1"><g transform="translate(757.414748, 275.145159)"><g><path d="M 137.8125 -71.421875 C 137.8125 -56.359375 135.09375 -43.335938 129.65625 -32.359375 C 124.21875 -21.390625 116.753906 -12.925781 107.265625 -6.96875 C 97.785156 -1.019531 86.953125 1.953125 74.765625 1.953125 C 62.585938 1.953125 51.753906 -1.019531 42.265625 -6.96875 C 32.773438 -12.925781 25.3125 -21.390625 19.875 -32.359375 C 14.4375 -43.335938 11.71875 -56.359375 11.71875 -71.421875 C 11.71875 -86.484375 14.4375 -99.5 19.875 -110.46875 C 25.3125 -121.445312 32.773438 -129.910156 42.265625 -135.859375 C 51.753906 -141.816406 62.585938 -144.796875 74.765625 -144.796875 C 86.953125 -144.796875 97.785156 -141.816406 107.265625 -135.859375 C 116.753906 -129.910156 124.21875 -121.445312 129.65625 -110.46875 C 135.09375 -99.5 137.8125 -86.484375 137.8125 -71.421875 Z M 121.078125 -71.421875 C 121.078125 -83.785156 119.019531 -94.222656 114.90625 -102.734375 C 110.789062 -111.242188 105.234375 -117.679688 98.234375 -122.046875 C 91.234375 -126.421875 83.410156 -128.609375 74.765625 -128.609375 C 66.117188 -128.609375 58.296875 -126.421875 51.296875 -122.046875 C 44.296875 -117.679688 38.738281 -111.242188 34.625 -102.734375 C 30.507812 -94.222656 28.453125 -83.785156 28.453125 -71.421875 C 28.453125 -59.054688 30.507812 -48.617188 34.625 -40.109375 C 38.738281 -31.597656 44.296875 -25.15625 51.296875 -20.78125 C 58.296875 -16.414062 66.117188 -14.234375 74.765625 -14.234375 C 83.410156 -14.234375 91.234375 -16.414062 98.234375 -20.78125 C 105.234375 -25.15625 110.789062 -31.597656 114.90625 -40.109375 C 119.019531 -48.617188 121.078125 -59.054688 121.078125 -71.421875 Z M 121.078125 -71.421875 "/></g></g></g></svg>